<svg width="16" height="16" viewBox="0 0 16 16" fill="none" xmlns="http://www.w3.org/2000/svg">
<path d="M0.888889 4.88889C0 4.88889 0 5.77777 0 5.77777V15.1111C0 15.1111 0 16 0.888889 16H15.1111C16 16 16 15.1111 16 15.1111V5.77777C16 5.77777 16 4.88889 15.1111 4.88889H0.888889Z" fill="#5C913B"/>
<path d="M0.888889 2.66666C0 2.66666 0 3.55555 0 3.55555V12.4444C0 12.4444 0 13.3333 0.888889 13.3333H15.1111C16 13.3333 16 12.4444 16 12.4444V3.55555C16 3.55555 16 2.66666 15.1111 2.66666H0.888889Z" fill="#A7D28B"/>
<path d="M11.1111 10.8889C12.7066 10.8889 14 9.59549 14 8C14 6.40451 12.7066 5.11111 11.1111 5.11111C9.51563 5.11111 8.22223 6.40451 8.22223 8C8.22223 9.59549 9.51563 10.8889 11.1111 10.8889Z" fill="#77B255"/>
<path d="M14.6667 12.6667H1.33334C0.965783 12.6667 0.666672 12.3676 0.666672 12V4.00001C0.666672 3.63245 0.965783 3.33334 1.33334 3.33334H14.6667C15.0342 3.33334 15.3333 3.63245 15.3333 4.00001V12C15.3333 12.3676 15.0342 12.6667 14.6667 12.6667ZM1.33334 3.77779C1.21112 3.77779 1.11112 3.87734 1.11112 4.00001V12C1.11112 12.1222 1.21112 12.2222 1.33334 12.2222H14.6667C14.7889 12.2222 14.8889 12.1222 14.8889 12V4.00001C14.8889 3.87734 14.7889 3.77779 14.6667 3.77779H1.33334Z" fill="#5C913B"/>
<path d="M6.22223 2.66666H9.77778V13.3609H6.22223V2.66666Z" fill="#FFE8B6"/>
<path d="M6.22223 13.3333H9.77778V16H6.22223V13.3333Z" fill="#FFAC33"/>
<path d="M5.2489 8.89912C5.2489 7.57512 2.80756 7.66134 2.80756 6.86179C2.80756 6.47468 3.17778 6.28579 3.60712 6.28579C4.32934 6.28579 4.45778 6.74979 4.78489 6.74979C5.01645 6.74979 5.12801 6.60401 5.12801 6.44046C5.12801 6.06001 4.55201 5.7729 3.99956 5.67334V5.30668C3.99956 5.07779 3.81423 4.89246 3.58534 4.89246C3.35645 4.89246 3.17112 5.07823 3.17112 5.30668V5.68579C2.56934 5.82357 2.05067 6.24134 2.05067 6.92179C2.05067 8.19379 4.49201 8.14223 4.49201 9.03646C4.49201 9.34535 4.15689 9.65468 3.60667 9.65468C2.78134 9.65468 2.50623 9.09601 2.17156 9.09601C2.00801 9.09601 1.86223 9.23334 1.86223 9.44046C1.86223 9.76979 2.41334 10.1653 3.17201 10.2765L3.17156 10.2782V10.6933C3.17156 10.9218 3.35734 11.1076 3.58623 11.1076C3.81467 11.1071 4.00001 10.9213 4.00001 10.6933V10.2782C4.00001 10.2738 3.99778 10.2698 3.99734 10.2658C4.67956 10.1382 5.2489 9.69423 5.2489 8.89912Z" fill="#5C913B"/>
</svg>
