<svg width="40" height="40" viewBox="0 0 40 40" fill="none" xmlns="http://www.w3.org/2000/svg">
<path d="M18.8235 16.4706H21.1765V14.1176H18.8235M20 29.4118C14.8118 29.4118 10.5882 25.1882 10.5882 20C10.5882 14.8118 14.8118 10.5882 20 10.5882C25.1882 10.5882 29.4118 14.8118 29.4118 20C29.4118 25.1882 25.1882 29.4118 20 29.4118ZM20 8.23529C18.455 8.23529 16.9252 8.53959 15.4978 9.13083C14.0705 9.72206 12.7736 10.5886 11.6811 11.6811C9.47479 13.8874 8.2353 16.8798 8.2353 20C8.2353 23.1202 9.47479 26.1126 11.6811 28.3189C12.7736 29.4114 14.0705 30.2779 15.4978 30.8692C16.9252 31.4604 18.455 31.7647 20 31.7647C23.1202 31.7647 26.1126 30.5252 28.3189 28.3189C30.5252 26.1126 31.7647 23.1202 31.7647 20C31.7647 18.455 31.4604 16.9252 30.8692 15.4978C30.2779 14.0705 29.4114 12.7735 28.3189 11.6811C27.2265 10.5886 25.9295 9.72206 24.5022 9.13083C23.0748 8.53959 21.545 8.23529 20 8.23529ZM18.8235 25.8824H21.1765V18.8235H18.8235V25.8824Z" fill="black"/>
</svg>
