<svg width="19" height="19" viewBox="0 0 19 19" fill="none" xmlns="http://www.w3.org/2000/svg">
<path d="M14.5469 0H4.45312C1.99373 0 0 1.99373 0 4.45312V14.5469C0 17.0063 1.99373 19 4.45312 19H14.5469C17.0063 19 19 17.0063 19 14.5469V4.45312C19 1.99373 17.0063 0 14.5469 0Z" fill="white"/>
<path d="M14.5469 0H4.45312C1.99373 0 0 1.99373 0 4.45312V14.5469C0 17.0063 1.99373 19 4.45312 19H14.5469C17.0063 19 19 17.0063 19 14.5469V4.45312C19 1.99373 17.0063 0 14.5469 0Z" fill="#1D9BF0"/>
<path d="M14.812 6.78441C14.8201 6.90219 14.8201 7.01998 14.8201 7.13888C14.8201 10.7605 12.0631 14.9374 7.02161 14.9374V14.9352C5.53228 14.9373 4.07379 14.5108 2.82031 13.7065C3.03688 13.7325 3.25449 13.7455 3.4727 13.7461C4.7071 13.747 5.906 13.333 6.87674 12.5705C6.30479 12.5597 5.75052 12.3704 5.29141 12.0292C4.8323 11.6879 4.49131 11.2117 4.31612 10.6672C4.72675 10.7463 5.15008 10.7302 5.55349 10.62C4.27485 10.3616 3.35491 9.23815 3.35491 7.93339V7.89865C3.73609 8.11096 4.16269 8.22861 4.59882 8.24169C3.39454 7.43679 3.0233 5.83463 3.7505 4.58197C4.4386 5.42873 5.29714 6.12126 6.27033 6.6146C7.24353 7.10793 8.30962 7.39102 9.39936 7.44547C9.29071 6.97778 9.30676 6.48975 9.4459 6.0302C9.58504 5.57065 9.8424 5.15569 10.1922 4.82681C11.2962 3.78909 13.0324 3.8423 14.0701 4.94564C14.6839 4.82445 15.2725 4.59944 15.8106 4.28027C15.606 4.91488 15.1778 5.45357 14.6057 5.79611C15.1491 5.7321 15.6797 5.58666 16.1797 5.36468C15.8119 5.91553 15.3487 6.39626 14.812 6.78441Z" fill="white"/>
</svg>
