<svg width="16" height="16" viewBox="0 0 16 16" fill="none" xmlns="http://www.w3.org/2000/svg">
<g clip-path="url(#clip0_1_24)">
<path d="M8 16C12.4183 16 16 12.4183 16 8C16 3.58172 12.4183 0 8 0C3.58172 0 0 3.58172 0 8C0 12.4183 3.58172 16 8 16Z" fill="#AA8DD8"/>
<path d="M4.44444 1.7778C3.29778 1.7778 1.94178 0.681797 1.51733 0.260464C1.26356 0.0062413 0.880444 -0.0697587 0.548889 0.0680191C0.216444 0.205352 0 0.529352 0 0.888908C0 2.42624 0.743111 5.33335 3.55556 5.33335C3.892 5.33335 4.2 5.14313 4.35067 4.8418L5.23956 3.06402C5.37733 2.78846 5.36267 2.46135 5.20044 2.19913C5.03867 1.93735 4.75244 1.7778 4.44444 1.7778ZM15.4516 0.0680191C15.1182 -0.0702032 14.7373 0.0062413 14.4827 0.260908C14.0889 0.654241 12.7062 1.7778 11.5556 1.7778C11.2476 1.7778 10.9613 1.93735 10.7996 2.19957C10.6378 2.46135 10.6231 2.78891 10.7604 3.06446L11.6493 4.84224C11.8 5.14313 12.1076 5.33335 12.4444 5.33335C15.2569 5.33335 16 2.42624 16 0.888908C16 0.529352 15.7836 0.205352 15.4516 0.0680191Z" fill="#AA8DD8"/>
<path d="M12.1489 11.3907C12.0698 11.3191 11.9516 11.3147 11.8667 11.3778C11.8493 11.3907 10.1236 12.6667 8 12.6667C5.88178 12.6667 4.15023 11.3907 4.13334 11.3778C4.04845 11.3147 3.93023 11.32 3.85111 11.3907C3.77245 11.4618 3.75467 11.5791 3.80934 11.6698C3.86667 11.7653 5.23911 14 8 14C10.7609 14 12.1338 11.7653 12.1907 11.6698C12.2453 11.5787 12.228 11.4618 12.1489 11.3907ZM6.98089 8.13021C5.53423 6.68355 3.20934 6.66666 3.11112 6.66666C2.86578 6.66666 2.66712 6.86532 2.66712 7.11021C2.66667 7.35555 2.86534 7.5551 3.11067 7.55555C3.12356 7.55555 3.96623 7.56532 4.88089 7.8831C4.61734 8.16755 4.44445 8.60932 4.44445 9.1111C4.44445 9.97066 4.94178 10.6667 5.55556 10.6667C6.16934 10.6667 6.66667 9.97066 6.66667 9.1111C6.66667 9.03377 6.65823 8.95999 6.65023 8.88577C6.656 8.88577 6.66134 8.88888 6.66667 8.88888C6.78045 8.88888 6.89423 8.84532 6.98089 8.75866C7.15467 8.58488 7.15467 8.30399 6.98089 8.13021ZM12.8889 6.66666C12.7907 6.66666 10.4662 6.68355 9.01911 8.13021C8.84534 8.30399 8.84534 8.58488 9.01911 8.75866C9.10578 8.84532 9.21956 8.88888 9.33334 8.88888C9.33912 8.88888 9.344 8.88577 9.34934 8.88577C9.34223 8.95999 9.33334 9.03377 9.33334 9.1111C9.33334 9.97066 9.83067 10.6667 10.4444 10.6667C11.0582 10.6667 11.5556 9.97066 11.5556 9.1111C11.5556 8.60932 11.3827 8.16755 11.1191 7.8831C12.0338 7.56532 12.8764 7.55555 12.8898 7.55555C13.1347 7.5551 13.3333 7.35555 13.3329 7.11021C13.3324 6.86532 13.1342 6.66666 12.8889 6.66666Z" fill="#553986"/>
</g>
<defs>
<clipPath id="clip0_1_24">
<rect width="16" height="16" fill="white"/>
</clipPath>
</defs>
</svg>
