<svg width="24" height="24" viewBox="0 0 24 24" fill="none" xmlns="http://www.w3.org/2000/svg">
<path d="M4.4 21L10.7 14.7C11.2 15.1 11.775 15.4167 12.425 15.65C13.075 15.8833 13.7667 16 14.5 16C16.3167 16 17.854 15.3707 19.112 14.112C20.37 12.8533 20.9993 11.316 21 9.5C21.0007 7.684 20.3713 6.14667 19.112 4.888C17.8527 3.62933 16.3153 3 14.5 3C12.6847 3 11.147 3.62933 9.887 4.888C8.627 6.14667 7.998 7.684 8 9.5C8 10.2333 8.11667 10.925 8.35 11.575C8.58333 12.225 8.9 12.8 9.3 13.3L3 19.6L4.4 21ZM14.5 14C13.25 14 12.1873 13.5627 11.312 12.688C10.4367 11.8133 9.99933 10.7507 10 9.5C10.0007 8.24933 10.438 7.187 11.312 6.313C12.186 5.439 13.2487 5.00133 14.5 5C15.7513 4.99867 16.8137 5.43633 17.687 6.313C18.5603 7.18967 18.998 8.252 19 9.5C19.002 10.748 18.5643 11.8107 17.687 12.688C16.8097 13.5653 15.7473 14.0027 14.5 14Z" fill="white"/>
</svg>
