<svg width="34" height="34" viewBox="0 0 34 34" fill="none" xmlns="http://www.w3.org/2000/svg">
<path d="M15.5833 29.75C14.5662 29.5961 13.592 29.325 12.6607 28.9368C11.7295 28.5487 10.8583 28.0495 10.047 27.4394L11.05 26.4208C11.7347 26.9167 12.461 27.3181 13.2288 27.625C13.9967 27.932 14.7815 28.1445 15.5833 28.2625V29.75ZM18.4167 29.75V28.3163C20.8722 27.9263 22.9028 26.8048 24.5083 24.9518C26.1139 23.0988 26.9167 20.944 26.9167 18.4875C26.9167 15.725 25.9547 13.3818 24.0309 11.458C22.1071 9.53418 19.7634 8.57179 17 8.57084H15.8992L18.8742 11.5458L17.8712 12.5488L13.1863 7.86251L17.8712 3.17618L18.8742 4.19618L15.9162 7.15418H17C18.5706 7.15418 20.043 7.44979 21.4172 8.04101C22.7913 8.63223 23.9922 9.44115 25.0197 10.4678C26.0473 11.4944 26.8562 12.6952 27.4465 14.0703C28.0368 15.4455 28.3324 16.9178 28.3333 18.4875C28.3333 21.3586 27.3908 23.8614 25.5057 25.9958C23.6205 28.1303 21.2575 29.3817 18.4167 29.75ZM8.04665 25.4405C7.4186 24.6122 6.90624 23.732 6.50957 22.7998C6.1129 21.8686 5.85554 20.9034 5.73749 19.9042H7.17115C7.30715 20.7258 7.53288 21.5154 7.84832 22.2728C8.16471 23.0312 8.57082 23.7528 9.06665 24.4375L8.04665 25.4405ZM5.73749 17.0708C5.87915 16.0121 6.1469 15.0143 6.54074 14.0774C6.93552 13.1396 7.43796 12.292 8.04807 11.5345L9.06665 12.5375C8.57082 13.2222 8.16471 13.9438 7.84832 14.7022C7.53193 15.4606 7.30621 16.2501 7.17115 17.0708H5.73749Z" fill="black"/>
</svg>
