<svg width="24" height="24" viewBox="0 0 24 24" fill="none" xmlns="http://www.w3.org/2000/svg">
<path fill-rule="evenodd" clip-rule="evenodd" d="M12.012 5.57199L10.925 4.48499C10.4155 3.96865 9.80897 3.55819 9.14022 3.27723C8.47146 2.99628 7.75374 2.85039 7.02837 2.84796C6.30301 2.84553 5.58432 2.98661 4.9137 3.26307C4.24308 3.53954 3.63378 3.94593 3.12086 4.45884C2.60795 4.97176 2.20156 5.58107 1.92509 6.25169C1.64863 6.92231 1.50755 7.64099 1.50998 8.36636C1.51241 9.09172 1.6583 9.80945 1.93925 10.4782C2.2202 11.1469 2.63067 11.7535 3.14701 12.263L11.986 21.102L11.988 21.1L12.014 21.126L20.853 12.287C21.3693 11.7775 21.7798 11.1709 22.0608 10.5022C22.3417 9.83345 22.4876 9.11572 22.49 8.39036C22.4925 7.66499 22.3514 6.94631 22.0749 6.27569C21.7985 5.60507 21.3921 4.99576 20.8792 4.48284C20.3662 3.96993 19.7569 3.56354 19.0863 3.28707C18.4157 3.01061 17.697 2.86953 16.9716 2.87196C16.2463 2.87439 15.5285 3.02028 14.8598 3.30123C14.191 3.58219 13.5845 3.99265 13.075 4.50899L12.012 5.57199ZM11.988 18.272L16.924 13.335L18.374 11.935H18.376L19.439 10.873C20.0954 10.2166 20.4642 9.32629 20.4642 8.39799C20.4642 7.46968 20.0954 6.5794 19.439 5.92299C18.7826 5.26658 17.8923 4.89781 16.964 4.89781C16.0357 4.89781 15.1454 5.26658 14.489 5.92299L12.013 8.39999L12.006 8.39299L9.51101 5.89999C8.8546 5.24358 7.96431 4.87481 7.03601 4.87481C6.1077 4.87481 5.21742 5.24358 4.56101 5.89999C3.9046 6.5564 3.53583 7.44668 3.53583 8.37499C3.53583 9.30329 3.9046 10.1936 4.56101 10.85L7.10101 13.39L7.10201 13.387L11.988 18.272Z" fill="black"/>
</svg>
