<svg width="34" height="34" viewBox="0 0 34 34" fill="none" xmlns="http://www.w3.org/2000/svg">
<g clip-path="url(#clip0_4_116)">
<path d="M30.6395 1.0625H32.4167C33.1178 1.0625 33.7903 1.3409 34.2862 1.8365C34.7821 2.3321 35.0609 3.00434 35.0613 3.70543V5.484C35.0624 9.62597 33.4813 13.6119 30.6411 16.6269L28.7853 18.5974C28.0182 19.4113 27.2134 20.1889 26.3735 20.9275V28.5405C26.3735 29.4698 25.8853 30.3296 25.0889 30.8071L18.2674 34.9007C18.1126 34.9937 17.9377 35.0484 17.7575 35.0601C17.5772 35.0718 17.3967 35.0403 17.2311 34.9682C17.0655 34.896 16.9195 34.7853 16.8054 34.6453C16.6912 34.5053 16.6122 34.34 16.5749 34.1633L15.1196 27.2545C15.0445 27.1948 14.9737 27.1296 14.9081 27.0596L12.0791 24.0464L9.06581 21.2161C8.99576 21.1505 8.93061 21.0797 8.87086 21.0046L1.96322 19.5494C1.7862 19.5125 1.62059 19.4337 1.48022 19.3197C1.33985 19.2058 1.22878 19.0598 1.15631 18.8942C1.08383 18.7285 1.05204 18.5479 1.0636 18.3675C1.07515 18.1871 1.12972 18.012 1.22274 17.8569L5.31806 11.0358C5.79559 10.2395 6.65546 9.75136 7.58484 9.75136H15.1967C15.9354 8.91249 16.713 8.10871 17.527 7.34266L19.4975 5.484C22.5119 2.64451 26.4968 1.06299 30.638 1.0625H30.6395ZM21.0526 7.13413L19.082 8.99128C17.2273 10.7386 15.5771 12.6909 14.163 14.8105L10.849 19.7821L13.6583 22.4175C13.6762 22.4338 13.6933 22.451 13.7097 22.4688L16.3437 25.2765L21.3125 21.9641C23.4341 20.5496 25.388 18.8984 27.1366 17.0425L28.9923 15.0735C31.4365 12.4788 32.7971 9.0485 32.796 5.484V3.70694C32.796 3.60674 32.7562 3.51066 32.6854 3.43981C32.6145 3.36896 32.5184 3.32916 32.4182 3.32916H30.6395C27.0757 3.32936 23.6465 4.69038 21.0526 7.13413ZM9.75189 31.6624C7.92486 33.4893 3.85674 33.846 2.58432 33.914C2.53441 33.9171 2.48441 33.9097 2.43754 33.8923C2.39068 33.8748 2.34801 33.8477 2.3123 33.8127C2.2773 33.777 2.2502 33.7343 2.23275 33.6875C2.21531 33.6406 2.20792 33.5906 2.21105 33.5407C2.27906 32.2684 2.6357 28.2005 4.46272 26.3735C5.82279 25.0135 8.39182 25.0135 9.75189 26.3735C11.112 27.7335 11.112 30.3024 9.75189 31.6624ZM8.85726 18.685L12.2756 13.5548C12.6231 13.032 12.9858 12.5197 13.3591 12.018H7.58484C7.51975 12.0181 7.45578 12.0349 7.39912 12.067C7.34246 12.099 7.29503 12.1451 7.26145 12.2009L3.9867 17.659L8.85726 18.685ZM24.1082 22.765C23.605 23.1398 23.0927 23.5009 22.5698 23.85L17.4423 27.2681L18.4669 32.1384L23.9253 28.8638C23.9811 28.8303 24.0272 28.7828 24.0593 28.7262C24.0913 28.6695 24.1081 28.6056 24.1082 28.5405V22.765ZM26.375 12.018C26.3749 12.3158 26.3161 12.6106 26.2021 12.8857C26.088 13.1607 25.9209 13.4106 25.7103 13.6211C25.4997 13.8316 25.2496 13.9985 24.9745 14.1124C24.6993 14.2262 24.4044 14.2848 24.1067 14.2847C23.8089 14.2846 23.5141 14.2258 23.239 14.1118C22.9639 13.9978 22.714 13.8307 22.5035 13.62C22.293 13.4094 22.1261 13.1594 22.0122 12.8843C21.8983 12.6091 21.8398 12.3143 21.8399 12.0165C21.8401 11.4152 22.0792 10.8385 22.5046 10.4134C22.93 9.98835 23.5068 9.74965 24.1082 9.74985C24.7096 9.75005 25.2862 9.98913 25.7114 10.4145C26.1365 10.8399 26.3752 11.4167 26.375 12.018Z" fill="black"/>
</g>
<defs>
<clipPath id="clip0_4_116">
<rect width="34" height="34" fill="white"/>
</clipPath>
</defs>
</svg>
