<svg width="19" height="19" viewBox="0 0 19 19" fill="none" xmlns="http://www.w3.org/2000/svg">
<path d="M14.5469 0H4.45312C1.99373 0 0 1.99373 0 4.45312V14.5469C0 17.0063 1.99373 19 4.45312 19H14.5469C17.0063 19 19 17.0063 19 14.5469V4.45312C19 1.99373 17.0063 0 14.5469 0Z" fill="white"/>
<path d="M14.5469 0H4.45312C1.99373 0 0 1.99373 0 4.45312V14.5469C0 17.0063 1.99373 19 4.45312 19H14.5469C17.0063 19 19 17.0063 19 14.5469V4.45312C19 1.99373 17.0063 0 14.5469 0Z" fill="#0A66C2"/>
<path d="M13.7093 16.1563H15.8817C15.9604 16.1563 16.0359 16.125 16.0916 16.0694C16.1473 16.0137 16.1786 15.9382 16.1786 15.8595L16.1797 11.2697C16.1797 8.8707 15.6628 7.02673 12.8593 7.02673C11.7936 6.9871 10.7886 7.53647 10.2463 8.45381C10.2436 8.45827 10.2396 8.46173 10.2348 8.46368C10.23 8.46563 10.2247 8.46595 10.2197 8.46459C10.2147 8.46324 10.2102 8.46029 10.2071 8.45618C10.2039 8.45208 10.2022 8.44705 10.2021 8.44186V7.54508C10.2021 7.46634 10.1708 7.39083 10.1152 7.33516C10.0595 7.27948 9.98397 7.2482 9.90523 7.2482H7.84366C7.76492 7.2482 7.68941 7.27948 7.63374 7.33516C7.57806 7.39083 7.54678 7.46634 7.54678 7.54508V15.8591C7.54678 15.9378 7.57806 16.0133 7.63374 16.069C7.68941 16.1247 7.76492 16.1559 7.84366 16.1559H10.0159C10.0946 16.1559 10.1701 16.1247 10.2258 16.069C10.2815 16.0133 10.3128 15.9378 10.3128 15.8591V11.7493C10.3128 10.5873 10.5332 9.46193 11.9739 9.46193C13.394 9.46193 13.4124 10.7916 13.4124 11.8246V15.8594C13.4124 15.9382 13.4437 16.0137 13.4994 16.0694C13.5551 16.125 13.6306 16.1563 13.7093 16.1563ZM2.82031 4.42552C2.82031 5.30605 3.54521 6.03057 4.42581 6.03057C5.3062 6.0305 6.03064 5.30553 6.03064 4.42514C6.0305 3.54476 5.30597 2.82031 4.42552 2.82031C3.54484 2.82031 2.82031 3.54498 2.82031 4.42552ZM3.3368 16.1563H5.51193C5.59067 16.1563 5.66618 16.125 5.72185 16.0694C5.77753 16.0137 5.8088 15.9382 5.8088 15.8594V7.54508C5.8088 7.46634 5.77753 7.39083 5.72185 7.33516C5.66618 7.27948 5.59067 7.2482 5.51193 7.2482H3.3368C3.25806 7.2482 3.18255 7.27948 3.12688 7.33516C3.0712 7.39083 3.03993 7.46634 3.03993 7.54508V15.8594C3.03993 15.9382 3.0712 16.0137 3.12688 16.0694C3.18255 16.125 3.25806 16.1563 3.3368 16.1563Z" fill="white"/>
</svg>
