<svg width="16" height="16" viewBox="0 0 16 16" fill="none" xmlns="http://www.w3.org/2000/svg">
<g clip-path="url(#clip0_1_52)">
<path d="M0.444458 7.55557L4.00001 4.44446L11.1111 4.8889L11.5556 12L8.44446 15.5556C8.44446 15.5556 8.4449 12.8893 5.77779 10.2222C3.11068 7.55512 0.444458 7.55557 0.444458 7.55557Z" fill="#A0041E"/>
<path d="M0.432443 15.5556C0.432443 15.5556 0.416443 12.0093 1.75911 10.6667C3.10178 9.32401 6.66667 9.41645 6.66667 9.41645C6.66667 9.41645 6.66622 12.8889 5.33289 14.2222C3.99955 15.5556 0.432443 15.5556 0.432443 15.5556Z" fill="#FFAC33"/>
<path d="M3.99958 13.7778C4.98142 13.7778 5.77736 12.9818 5.77736 12C5.77736 11.0182 4.98142 10.2222 3.99958 10.2222C3.01774 10.2222 2.2218 11.0182 2.2218 12C2.2218 12.9818 3.01774 13.7778 3.99958 13.7778Z" fill="#FFCC4D"/>
<path d="M15.9995 0C15.9995 0 11.5551 0 6.22175 4.44444C3.55509 6.66667 3.55509 10.6667 4.44398 11.5556C5.33287 12.4444 9.33287 12.4444 11.5551 9.77778C15.9995 4.44444 15.9995 0 15.9995 0Z" fill="#55ACEE"/>
<path d="M11.9996 2.22223C11.2782 2.22223 10.6605 2.65378 10.3813 3.27112C10.6045 3.17023 10.8502 3.11112 11.1107 3.11112C12.0925 3.11112 12.8885 3.90712 12.8885 4.8889C12.8885 5.14934 12.8293 5.39512 12.7289 5.61778C13.3462 5.33912 13.7773 4.72134 13.7773 4.00001C13.7773 3.01823 12.9813 2.22223 11.9996 2.22223Z" fill="black"/>
<path d="M3.55554 12.4444C3.55554 12.4444 3.55554 10.6667 3.99999 10.2222C4.44443 9.77778 9.77821 5.33378 10.2222 5.77778C10.6662 6.22178 6.22176 11.5556 5.77732 12C5.33288 12.4444 3.55554 12.4444 3.55554 12.4444Z" fill="#A0041E"/>
</g>
<defs>
<clipPath id="clip0_1_52">
<rect width="16" height="16" fill="white"/>
</clipPath>
</defs>
</svg>
