<svg width="34" height="34" viewBox="0 0 34 34" fill="none" xmlns="http://www.w3.org/2000/svg">
<path d="M17 4.25C9.96944 4.25 4.25 9.96944 4.25 17C4.25 24.0306 9.96944 29.75 17 29.75C24.0306 29.75 29.75 24.0306 29.75 17C29.75 9.96944 24.0306 4.25 17 4.25ZM17 6.375C17.357 6.375 17.714 6.40794 18.0625 6.44194V9.66131C17.7111 9.60316 17.3561 9.57013 17 9.5625C16.6388 9.5625 16.286 9.61244 15.9375 9.66237V6.44194C16.2904 6.40284 16.645 6.3805 17 6.375ZM13.8125 6.84038V10.2935C12.2703 11.0281 11.0275 12.2705 10.2924 13.8125H6.87437C7.38171 12.1763 8.27784 10.6873 9.48611 9.47289C10.6944 8.25851 12.1788 7.35489 13.8125 6.83931V6.84038ZM20.1875 6.84038C21.8239 7.3579 23.3117 8.26155 24.5254 9.47503C25.739 10.6885 26.6429 12.1762 27.1607 13.8125H23.7076C22.9739 12.2693 21.7307 11.0261 20.1875 10.2924V6.84038ZM17 11.6875C19.9463 11.6875 22.3125 14.0537 22.3125 17C22.3125 19.9463 19.9463 22.3125 17 22.3125C14.0537 22.3125 11.6875 19.9463 11.6875 17C11.6875 14.0537 14.0537 11.6875 17 11.6875ZM6.44087 15.9375H9.62838C9.58125 16.2897 9.55924 16.6447 9.5625 17C9.5625 17.3612 9.61244 17.714 9.66237 18.0625H6.44194C6.40284 17.7096 6.3805 17.355 6.375 17C6.375 16.643 6.40794 16.286 6.44194 15.9375H6.44087ZM24.3376 15.9375H27.5591C27.591 16.286 27.625 16.643 27.625 17C27.625 17.357 27.5921 17.714 27.5581 18.0625H24.3387C24.3876 17.714 24.4375 17.3612 24.4375 17C24.4375 16.6388 24.3876 16.286 24.3376 15.9375ZM6.84038 20.1875H10.2935C11.0269 21.7305 12.2697 22.9737 13.8125 23.7076V27.1607C12.176 26.6431 10.6881 25.7393 9.47443 24.5256C8.26075 23.3119 7.35694 21.824 6.83931 20.1875H6.84038ZM23.7076 20.1875H27.1607C26.6431 21.824 25.7393 23.3119 24.5256 24.5256C23.3119 25.7393 21.824 26.6431 20.1875 27.1607V23.7076C21.7307 22.9739 22.9739 21.7307 23.7076 20.1875ZM15.9375 24.3376C16.286 24.3876 16.6388 24.4375 17 24.4375C17.3612 24.4375 17.714 24.3876 18.0625 24.3376V27.5591C17.7096 27.5979 17.355 27.6198 17 27.625C16.643 27.625 16.286 27.5921 15.9375 27.5581V24.3376Z" fill="black"/>
</svg>
